<svg xmlns="http://www.w3.org/2000/svg" width="11" height="18" viewBox="0 0 11 18"><g><g><path fill="#fff" d="M5.549 0c2.699 0 4.887 2.126 4.887 4.749 0 2.622-2.188 4.748-4.887 4.748C2.85 9.497.662 7.371.662 4.75c0-2.623 2.188-4.75 4.887-4.75zM3.548 4.749c0 1.073.896 1.944 2 1.944 1.106 0 2.002-.87 2.002-1.944 0-1.075-.896-1.945-2.001-1.945s-2.001.87-2.001 1.945zM1.36 9.497c.101 0 .2.011.295.031.282.018.533.077.683.15.558.272 1.396.905 3.071.905 1.676 0 3.258-.814 3.258-.814s.218-.16.654-.234a1.39 1.39 0 0 1 .38-.037h.083c.14 0 .252.032.339.084.495.183.851.64.87 1.181h.001s.186 1.176-1.675 1.81c-1.499.51-1.73.55-1.764.546l2.788 2.62-.01.016c.181.235.289.527.289.843 0 .774-.646 1.402-1.443 1.402-.325 0-.625-.104-.866-.28l-.018.008-2.7-2.623-2.792 2.623-.019-.008c-.24.176-.54.28-.865.28-.797 0-1.443-.628-1.443-1.402 0-.316.107-.607.288-.841l-.009-.019 2.793-2.623S.197 12.572.01 10.945c-.082-.71.244-1.093.683-1.277.197-.109.424-.17.666-.17z"/><path fill="#a5b3c4" d="M5.549 0c2.699 0 4.887 2.126 4.887 4.749 0 2.622-2.188 4.748-4.887 4.748C2.85 9.497.662 7.371.662 4.75c0-2.623 2.188-4.75 4.887-4.75zM3.548 4.749c0 1.073.896 1.944 2 1.944 1.106 0 2.002-.87 2.002-1.944 0-1.075-.896-1.945-2.001-1.945s-2.001.87-2.001 1.945zM1.36 9.497c.101 0 .2.011.295.031.282.018.533.077.683.15.558.272 1.396.905 3.071.905 1.676 0 3.258-.814 3.258-.814s.218-.16.654-.234a1.39 1.39 0 0 1 .38-.037h.083c.14 0 .252.032.339.084.495.183.851.64.87 1.181h.001s.186 1.176-1.675 1.81c-1.499.51-1.73.55-1.764.546l2.788 2.62-.01.016c.181.235.289.527.289.843 0 .774-.646 1.402-1.443 1.402-.325 0-.625-.104-.866-.28l-.018.008-2.7-2.623-2.792 2.623-.019-.008c-.24.176-.54.28-.865.28-.797 0-1.443-.628-1.443-1.402 0-.316.107-.607.288-.841l-.009-.019 2.793-2.623S.197 12.572.01 10.945c-.082-.71.244-1.093.683-1.277.197-.109.424-.17.666-.17z"/></g></g></svg>