<svg xmlns="http://www.w3.org/2000/svg" width="17" height="14" viewBox="0 0 17 14"><g><g><path fill="#fff" d="M17 1.655a6.889 6.889 0 0 1-2.003.557A3.537 3.537 0 0 0 16.53.256c-.674.405-1.42.7-2.215.858A3.46 3.46 0 0 0 11.77-.003c-1.926 0-3.488 1.583-3.488 3.536 0 .277.03.547.09.806C5.474 4.19 2.904 2.783 1.183.644c-.3.522-.472 1.13-.472 1.778 0 1.226.616 2.308 1.552 2.943a3.43 3.43 0 0 1-1.58-.443v.045c0 1.713 1.202 3.142 2.797 3.467a3.45 3.45 0 0 1-1.575.06C2.35 9.9 3.637 10.921 5.164 10.95A6.94 6.94 0 0 1 0 12.413a9.772 9.772 0 0 0 5.346 1.59c6.416 0 9.924-5.388 9.924-10.06 0-.154-.004-.306-.01-.458A7.14 7.14 0 0 0 17 1.655z"/><path fill="#00aae9" d="M17 1.655a6.889 6.889 0 0 1-2.003.557A3.537 3.537 0 0 0 16.53.256c-.674.405-1.42.7-2.215.858A3.46 3.46 0 0 0 11.77-.003c-1.926 0-3.488 1.583-3.488 3.536 0 .277.03.547.09.806C5.474 4.19 2.904 2.783 1.183.644c-.3.522-.472 1.13-.472 1.778 0 1.226.616 2.308 1.552 2.943a3.43 3.43 0 0 1-1.58-.443v.045c0 1.713 1.202 3.142 2.797 3.467a3.45 3.45 0 0 1-1.575.06C2.35 9.9 3.637 10.921 5.164 10.95A6.94 6.94 0 0 1 0 12.413a9.772 9.772 0 0 0 5.346 1.59c6.416 0 9.924-5.388 9.924-10.06 0-.154-.004-.306-.01-.458A7.14 7.14 0 0 0 17 1.655z"/></g></g></svg>