<svg xmlns="http://www.w3.org/2000/svg" width="17" height="12" viewBox="0 0 17 12"><g><g><path fill="#fff" d="M2.615 0h11.77C15.829 0 17 1.193 17 2.666v6.667C17 10.806 15.829 12 14.385 12H2.615C1.171 12 0 10.806 0 9.333V2.666C0 1.193 1.17 0 2.615 0zm3.681 3.726v4.547s0 .569.523.569c.522 0 3.656-2.274 3.656-2.274s.523-.568 0-1.137c-.857-.933-3.157-2.234-3.656-2.273-.521-.041-.523.568-.523.568z"/><path fill="#d60007" d="M2.615 0h11.77C15.829 0 17 1.193 17 2.666v6.667C17 10.806 15.829 12 14.385 12H2.615C1.171 12 0 10.806 0 9.333V2.666C0 1.193 1.17 0 2.615 0zm3.681 3.726v4.547s0 .569.523.569c.522 0 3.656-2.274 3.656-2.274s.523-.568 0-1.137c-.857-.933-3.157-2.234-3.656-2.273-.521-.041-.523.568-.523.568z"/></g></g></svg>